# xmcd CD database file
#
# Track frame offsets:
#	187
#	14602
#	33955
#	51685
#	71515
#	91257
#	110975
#	131522
#	148585
#	172537
#	187245
#	206455
#
# Disc length: 3036 seconds
#
# Revision: 0
# Processed by: cddbd v1.5PL3 Copyright (c) Steve Scherf et al.
# Submitted via: CDex 1.50beta10
#
DISCID=af0bda0c
DTITLE=Graham Bonnet - Here Comes The Night
DYEAR=1900
DGENRE=Rock
TTITLE0=Something About You
TTITLE1=Here Comes The Night
TTITLE2=Long Time Gone
TTITLE3=Only One Woman
TTITLE4=Please Call Me
TTITLE5=A Change Is Gonna Come
TTITLE6=I'll Go Crazy
TTITLE7=I Go To Sleep
TTITLE8=Look Don't Touch
TTITLE9=Eyes Of A Child
TTITLE10=Don't
TTITLE11=What She Says, You Hear It Means
EXTD=
EXTT0=
EXTT1=
EXTT2=
EXTT3=
EXTT4=
EXTT5=
EXTT6=
EXTT7=
EXTT8=
EXTT9=
EXTT10=
EXTT11=
PLAYORDER=
